<svg width="36" height="36" viewBox="0 0 36 36" fill="none" xmlns="http://www.w3.org/2000/svg">
<path d="M18.1094 9.51444L14.631 0.937744L14.6909 10.1959L8.20191 3.60474L11.8003 12.1227L3.27216 8.52754L9.86915 15.0247L0.609375 14.9542L9.18546 18.4319L0.609375 21.9213L9.86915 21.8508L3.27216 28.3479L11.8003 24.741L8.20191 33.2707L14.6909 26.6795L14.631 35.9377L18.1094 27.3611L21.5877 35.9377L21.5278 26.6795L28.0169 33.2707L24.4184 24.741L32.9467 28.3479L26.3496 21.8508L35.6094 21.9213L27.0333 18.4319L35.6094 14.9542L26.3496 15.0247L32.9467 8.52754L24.4184 12.1227L28.0169 3.60474L21.5278 10.1959L21.5877 0.937744L18.1094 9.51444Z" fill="#E8E8E8"/>
</svg>
