<svg width="23" height="22" viewBox="0 0 23 22" fill="none" xmlns="http://www.w3.org/2000/svg">
<path d="M21.5389 7.53555C22.1028 7.71413 22.4247 8.01573 22.4992 8.44568C22.5738 8.87563 22.414 9.33409 22.0256 9.81566C21.6089 10.3244 21.1067 10.6645 20.5358 10.8306C18.3366 11.4358 15.8149 11.5002 12.9709 11.0126C14.9963 9.39679 17.2344 8.25273 19.6912 7.56386C20.3573 7.37182 20.9695 7.36229 21.5389 7.53555ZM13.8828 1.14493C14.3799 0.776937 14.8832 0.653869 15.3926 0.775817C15.7907 0.895364 16.0895 1.2409 16.3056 1.81847C16.4822 2.42301 16.4811 3.01281 16.2913 3.57632C15.7192 5.40042 14.3164 7.57451 12.0941 10.0987C11.7683 7.57714 11.9919 5.11703 12.7595 2.72391C12.9789 2.06641 13.3571 1.54013 13.8828 1.14493ZM19.491 17.9916C19.5291 18.5654 19.3751 19.0185 19.0174 19.3615C18.6938 19.6719 18.2298 19.7791 17.6308 19.6888C17.059 19.6268 16.5799 19.3887 16.1933 18.9857C14.723 17.4529 13.5442 15.2808 12.6625 12.4639C14.982 13.2911 17.0351 14.6245 18.8104 16.4752C19.2243 16.9067 19.4585 17.4123 19.4912 17.9805M3.53437 5.15254C3.49855 4.46747 3.68785 3.92616 4.10227 3.52863C4.45424 3.191 4.99087 3.0686 5.70115 3.16133C6.38296 3.2812 6.94987 3.57674 7.39098 4.03659C8.71971 5.42177 9.84334 7.57042 10.7568 10.4659C7.72507 9.37355 5.60202 8.19441 4.38219 6.92276C3.88118 6.40047 3.60399 5.81602 3.53437 5.15254ZM9.93187 21.5037C9.46183 21.9001 8.99713 22.0407 8.54341 21.92C8.14532 21.8004 7.85739 21.4662 7.67397 20.9227C7.4917 20.3236 7.49284 19.7338 7.68828 19.1648C8.51509 16.5949 9.71081 14.4778 11.2811 12.808C11.7091 15.5041 11.6046 17.8498 10.9733 19.8507C10.7526 20.5639 10.4017 21.1185 9.93163 21.5149M1.91799 15.4562C1.38377 15.1948 1.06365 14.8042 0.968695 14.2848C0.865792 13.8821 1.02561 13.4237 1.4423 12.9149C1.8579 12.4618 2.35402 12.1494 2.93039 11.9889C5.12952 11.3837 7.61786 11.3186 10.4062 11.805C7.99618 13.7244 5.72757 14.9958 3.58976 15.5967C3.00763 15.7626 2.4522 15.7177 1.91799 15.4562Z" fill="#EDF738"/>
</svg>
